<?xml version="1.0" standalone="no"?>
<!DOCTYPE svg PUBLIC "-//W3C//DTD SVG 20010904//EN"
 "http://www.w3.org/TR/2001/REC-SVG-20010904/DTD/svg10.dtd">
<svg version="1.0" xmlns="http://www.w3.org/2000/svg"
 width="225.000000pt" height="225.000000pt" viewBox="0 0 225.000000 225.000000"
 preserveAspectRatio="xMidYMid meet">

<g transform="translate(0.000000,225.000000) scale(0.100000,-0.100000)"
fill="#000000" stroke="none">
<path d="M218 1316 c-16 -12 -18 -36 -18 -251 l0 -237 23 6 c12 3 28 6 35 6 9
0 12 33 12 131 0 71 4 128 8 125 5 -3 26 -56 47 -118 21 -62 41 -117 45 -121
4 -5 24 -5 44 -2 l36 7 0 234 0 234 -35 0 -35 0 0 -142 c0 -80 -4 -138 -9
-133 -4 6 -30 70 -56 143 -49 137 -59 148 -97 118z"/>
<path d="M530 1099 l0 -232 68 6 c37 4 86 7 110 7 41 0 42 1 42 35 l0 35 -70
0 -70 0 0 60 0 60 50 0 50 0 0 35 0 35 -50 0 -50 0 0 55 0 55 70 0 70 0 0 40
0 40 -110 0 -110 0 0 -231z"/>
<path d="M800 1290 l0 -40 45 0 45 0 0 -180 0 -180 35 0 35 0 0 180 0 180 40
0 40 0 0 40 0 40 -120 0 -120 0 0 -40z"/>
<path d="M1100 1109 l0 -220 38 3 37 3 0 88 0 87 53 0 52 0 0 40 0 40 -50 0
-50 0 0 50 0 50 70 0 70 0 0 40 0 40 -110 0 -110 0 0 -221z"/>
<path d="M1370 1110 l0 -220 59 0 c32 0 79 -3 105 -6 l46 -7 0 35 c0 32 -3 36
-31 42 -17 3 -47 6 -65 6 l-34 0 0 185 0 185 -40 0 -40 0 0 -220z"/>
<path d="M1657 1323 c-3 -5 -4 -107 -3 -228 l2 -220 37 -3 37 -3 0 230 0 231
-34 0 c-19 0 -37 -3 -39 -7z"/>
<path d="M1842 1228 c22 -57 43 -112 45 -124 3 -11 -16 -67 -41 -124 -25 -58
-46 -108 -46 -112 0 -4 17 -8 38 -8 37 0 39 2 62 58 12 31 26 60 29 65 4 4 20
-26 35 -67 27 -70 30 -74 64 -80 20 -3 38 -4 40 -1 2 2 -17 58 -42 124 -25 67
-46 126 -46 132 0 6 22 62 49 125 l49 114 -39 0 c-39 0 -40 -1 -70 -67 l-31
-68 -14 30 c-7 17 -20 47 -28 68 -14 34 -18 37 -55 37 l-39 0 40 -102z"/>
</g>
</svg>
